# xmcd
#
# Track frame offsets:
#	150
#	26857
#	49518
#	61482
#	95573
#	127970
#	141529
#	173837
#	199870
#	273940
#
# Disc length: 4227 seconds
#
# Revision: 0
# Processed by: cddbd v1.5.2PL0 Copyright (c) Steve Scherf et al.
# Submitted via: EasyCDDAExtractor 9.1.0.1
#
DISCID=9310810a
DTITLE=Ry Cooder and The Moula Banda Rhythm Aces - The Catalyst - Santa Cruz, CA
DTITLE=3-24-87
DYEAR=1987
DGENRE=Blues
TTITLE0=Let's Have A Ball
TTITLE1=Jesus On The Mainline
TTITLE2=Atom Bomb
TTITLE3=Down In Mississippi
TTITLE4=The Very Thing That Makes Her Rich Makes You Poor
TTITLE5=Teeny Weeny Bit Of Your Love
TTITLE6=Crazy 'Bout An Automobile
TTITLE7=Chain Gang
TTITLE8=Down In Hollywood
TTITLE9=Goodnight Irene
EXTD=
EXTT0=
EXTT1=
EXTT2=
EXTT3=
EXTT4=
EXTT5=
EXTT6=
EXTT7=
EXTT8=
EXTT9=
PLAYORDER=
